<?xml version="1.0" encoding="utf-8"?>
<!-- Generator: Adobe Illustrator 24.2.1, SVG Export Plug-In . SVG Version: 6.00 Build 0)  -->
<svg version="1.1" id="Layer_1" xmlns="http://www.w3.org/2000/svg" xmlns:xlink="http://www.w3.org/1999/xlink" x="0px" y="0px"
	 viewBox="0 0 1260 185.7" style="enable-background:new 0 0 1260 185.7;" xml:space="preserve">
<style type="text/css">
	.st0{clip-path:url(#SVGID_2_);}
	.st1{clip-path:url(#SVGID_4_);}
	.st2{fill:#323E48;}
	.st3{clip-path:url(#SVGID_6_);}
	.st4{fill:url(#SVGID_7_);}
	.st5{clip-path:url(#SVGID_9_);}
	.st6{fill:url(#SVGID_10_);}
</style>
<g id="Layer_2_1_">
	<g id="Layer_1-2">
		<g id="RGB-Gradient-Logo-Horz-R">
			<g>
				<g>
					<defs>
						<rect id="SVGID_1_" x="230" width="800" height="185.7"/>
					</defs>
					<clipPath id="SVGID_2_">
						<use xlink:href="#SVGID_1_"  style="overflow:visible;"/>
					</clipPath>
					<g class="st0">
						<g>
							<g>
								<defs>
									<rect id="SVGID_3_" x="230" width="800" height="185.7"/>
								</defs>
								<clipPath id="SVGID_4_">
									<use xlink:href="#SVGID_3_"  style="overflow:visible;"/>
								</clipPath>
								<g class="st1">
									<path class="st2" d="M1030,66.7c0,3.4-2.8,6.1-6.2,6c-3.4,0-6.1-2.8-6-6.2c0-3.3,2.8-6,6.1-6
										C1027.3,60.5,1030,63.3,1030,66.7L1030,66.7 M1029,66.7c0-2.8-2.3-5-5.1-4.9c-2.8,0-5,2.3-4.9,5.1c0,2.7,2.2,4.9,4.9,4.9
										C1026.8,71.8,1029,69.5,1029,66.7L1029,66.7 M1024.9,67.6l1.5,2.2h-1.2l-1.5-2.1h-0.7v2.1h-1.1v-6h2.3c1-0.1,1.9,0.6,2,1.6
										c0,0.1,0,0.2,0,0.3C1026.2,66.8,1025.8,67.4,1024.9,67.6 M1023,66.8h1.2c0.5,0,0.9-0.4,0.9-0.9s-0.4-0.9-0.9-0.9h-1.2V66.8
										z"/>
									<path class="st2" d="M654.8,94.1l-13.4-33.4h-22.7l25.5,56.9L628.3,157h21.9L690,60.7h-22L654.8,94.1z M695.8,125.2h20.5
										V26.7h-20.5V125.2z M758.9,59.1c-18.7-0.7-34.3,13.9-35,32.6l0,0c0,0.4,0,0.8,0,1.2c0.1,18.6,15.2,33.7,33.9,33.7h1.1
										c18.7,0.7,34.4-13.9,35.1-32.7c0-0.3,0-0.7,0-1C793.9,74.1,778.7,59,760,59C759.6,59,759.3,59,758.9,59.1 M758.9,107.4
										c-7.7,0.2-14.1-6-14.3-13.7c0-0.3,0-0.6,0-1C744.3,85,750.2,78.4,758,78c0.3,0,0.6,0,0.8,0c7.8-0.1,14.2,6.2,14.3,13.9
										c0,0,0,0,0,0.1c0,0.3,0,0.6,0,0.8c0.4,7.7-5.6,14.3-13.3,14.7l0,0c-0.3,0-0.6,0-0.9,0 M836.3,78c4.8,0.1,9.4,2.4,12.3,6.2
										l15.8-10c-6.2-9.6-16.8-15.3-28.2-15.2c-18.8,0-35.6,13.1-35.6,33.6s16.8,33.8,35.6,33.8c11.4,0.1,22.1-5.6,28.2-15.2
										l-15.8-10c-2.9,3.9-7.5,6.2-12.3,6.2c-7.8,0.4-14.5-5.6-14.9-13.4l0,0c0-0.5,0-0.9,0-1.4c-0.2-7.8,5.9-14.3,13.6-14.6
										C835.4,78,835.9,78,836.3,78 M882.2,27.1c-6.8-0.3-12.5,5-12.8,11.8c0,0,0,0,0,0.1l0,0c0.3,6.8,6,12.1,12.7,11.9
										c6.7,0.1,12.3-5.2,12.4-11.9c0-6.6-5.5-12-12.1-11.9c0,0,0,0-0.1,0H882.2 M871.8,125.2h20.5V60.7h-20.5V125.2z M913.3,37.5
										v23.3h-11.8v15.4h11.8v49.2h20.5V76.1h16.8l18.6,41.5L953.3,157h21.9l39.9-96.3h-22l-13.2,33.4l-13.4-33.4h-32.7V37.5
										H913.3z M504,59.1c-7.6-0.2-14.9,2.9-20,8.6v-6.9h-20.5v96.3H484v-39.2c5.1,5.6,12.4,8.7,20,8.4
										c17.6-0.2,31.7-14.6,31.5-32.2c0-0.5,0-0.9,0-1.4c0.9-17.6-12.6-32.6-30.2-33.6C504.8,59.1,504.4,59.1,504,59.1
										 M499.7,107.4c-8.1-0.2-14.5-6.8-14.3-14.9c0.2-8.1,6.8-14.5,14.9-14.3c7.9,0.2,14.2,6.6,14.3,14.5
										C514.5,100.9,507.8,107.4,499.7,107.4 M592.4,67.8c-5.1-5.7-12.4-8.8-20.1-8.6C554.7,59.5,540.7,74,541,91.6l0,0
										c0,0.4,0,0.8,0,1.3c-1,17.6,12.4,32.6,30,33.6h1.3c7.6,0.2,14.9-3,20.1-8.6v7.3h20.4V60.7h-20.3L592.4,67.8L592.4,67.8z
										 M576.8,107.4c-8-0.2-14.4-6.8-14.2-14.8c0.2-8,6.8-14.4,14.8-14.2c7.9,0.2,14.3,6.6,14.2,14.5
										C591.4,100.9,584.8,107.4,576.8,107.4"/>
								</g>
							</g>
						</g>
						<g>
							<g>
								<defs>
									<path id="SVGID_5_" d="M230.9,101.5c-0.5,0.1-0.9,0.5-0.9,1v0.1v0.1v0.2c9.7,48.1,37.3,82.9,69.9,82.9
										c10.4,0,42.8,0,53.7-70.5c0.2-1.3-1.4-1.8-1.8-0.6c-5.1,17.3-15.4,45.4-28.5,45.4c-9.4,0-20.3-14.5-31.7-57.9
										c-0.1-0.4-0.4-0.7-0.9-0.8L230.9,101.5z M362.4,101.5c-0.5,0-0.9,0.4-0.9,0.9c-3.7,37.1-13.2,64.1-29.5,79
										c-0.5,0.4-0.5,1.2-0.1,1.6l0,0c0.1,0.1,0.2,0.2,0.3,0.3c4.7,1.5,9.6,2.3,14.5,2.3c32.8,0,60.4-35.4,69.9-83.1
										c0-0.6-0.4-1-0.9-1.1l0,0L362.4,101.5z"/>
								</defs>
								<clipPath id="SVGID_6_">
									<use xlink:href="#SVGID_5_"  style="overflow:visible;"/>
								</clipPath>
								<g class="st3">
									
										<linearGradient id="SVGID_7_" gradientUnits="userSpaceOnUse" x1="233.87" y1="-178.2104" x2="236.03" y2="-178.2104" gradientTransform="matrix(-79.35 0 0 79.35 18963.9199 14284.542)">
										<stop  offset="0" style="stop-color:#FF8F1C"/>
										<stop  offset="1" style="stop-color:#ED2024"/>
									</linearGradient>
									<rect x="230" y="101.4" class="st4" width="186.8" height="84.3"/>
								</g>
							</g>
						</g>
						<g>
							<g>
								<defs>
									<path id="SVGID_8_" d="M230,83.2L230,83.2c0,0.6,0.4,1,0.9,1.1h53.4c0.5,0,0.9-0.4,0.9-0.9c3.8-37.1,13.2-64.1,29.5-79
										c0.5-0.5,0.5-1.2,0-1.7l0,0c-0.1-0.1-0.2-0.2-0.3-0.2c-4.7-1.5-9.6-2.3-14.5-2.3C267.2,0.1,239.5,35.5,230,83.2 M346.8,0
										c-10.4,0-42.8,0-53.7,70.5c-0.2,1.3,1.4,1.8,1.8,0.6c5.1-17.4,15.4-45.5,28.5-45.5c9.4,0,20.3,14.5,31.7,57.9
										c0.1,0.4,0.4,0.7,0.9,0.8h59.8c0.6-0.1,1-0.6,0.9-1.2l0,0v-0.2C407,34.8,379.4,0,346.8,0z"/>
								</defs>
								<clipPath id="SVGID_9_">
									<use xlink:href="#SVGID_8_"  style="overflow:visible;"/>
								</clipPath>
								<g class="st5">
									
										<linearGradient id="SVGID_10_" gradientUnits="userSpaceOnUse" x1="235.01" y1="-189.0942" x2="237.17" y2="-189.0942" gradientTransform="matrix(79.35 0 0 -79.35 -18407.5195 -14962.4717)">
										<stop  offset="0" style="stop-color:#FF8F1C"/>
										<stop  offset="0" style="stop-color:#FF8F1C"/>
										<stop  offset="1" style="stop-color:#ED2024"/>
									</linearGradient>
									<rect x="230" class="st6" width="186.8" height="84.3"/>
								</g>
							</g>
						</g>
					</g>
				</g>
			</g>
		</g>
	</g>
</g>
</svg>
