<svg id="Calque_1" data-name="Calque 1" xmlns="http://www.w3.org/2000/svg" viewBox="0 0 203.75 38.71"><defs><style>.cls-1{fill:red;}</style></defs><title>Radio-Canada</title><ellipse class="cls-1" cx="19.36" cy="19.35" rx="6.92" ry="6.92"/><path class="cls-1" d="M11.37,26.27a6.92,6.92,0,0,1,0-13.83Z"/><path class="cls-1" d="M27.35,33.91V27.34h6.57A6.56,6.56,0,0,1,27.35,33.91Z"/><path class="cls-1" d="M11.37,4.8v6.57H4.8A6.57,6.57,0,0,1,11.37,4.8Z"/><path class="cls-1" d="M11.37,33.91V27.34H4.8A6.56,6.56,0,0,0,11.37,33.91Z"/><path class="cls-1" d="M35.33,25.3V13.41a6.91,6.91,0,0,1,0,11.88Z"/><path class="cls-1" d="M13.42,3.37H25.3a6.92,6.92,0,0,0-11.88,0Z"/><path class="cls-1" d="M25.21,35.33H13.33a6.92,6.92,0,0,0,11.89,0Z"/><path class="cls-1" d="M26.28,27.34a6.92,6.92,0,1,1-13.84,0Z"/><path class="cls-1" d="M27.35,26.27a6.92,6.92,0,1,0,0-13.83Z"/><path class="cls-1" d="M26.28,11.38a6.92,6.92,0,0,0-13.84,0Z"/><path class="cls-1" d="M3.38,25.3V13.41a6.91,6.91,0,0,0,0,11.88Z"/><path class="cls-1" d="M33.92,11.37H27.35V4.8A6.57,6.57,0,0,1,33.92,11.37Z"/><path d="M92.83,11.4a1,1,0,0,0-1,1V26.38a1,1,0,0,0,1,1,1,1,0,0,0,1-1V12.43a1,1,0,0,0-1-1"/><path d="M89.38,18.16c-.25-4.3-2.9-6.77-7.24-6.77H78.32A1.52,1.52,0,0,0,76.68,13V25.8a1.56,1.56,0,0,0,1.64,1.6h3.82c4.28,0,7-2.53,7.24-6.77a23.12,23.12,0,0,0,0-2.48m-2,2.42c-.2,3.21-2,4.91-5.24,4.91H78.68V13.31h3.46c3.25,0,5.07,1.7,5.24,4.92a20,20,0,0,1,0,2.35"/><path d="M60.1,25.73l-4-4.88a4.23,4.23,0,0,0,3.77-4.51,4.8,4.8,0,0,0-5.19-4.94H50.12A1.52,1.52,0,0,0,48.5,13V26.38a1,1,0,1,0,2,0V21.22h2.65a1.36,1.36,0,0,1,1.2.69l4.18,5.15a1,1,0,0,0,.74.34,1,1,0,0,0,.69-.27,1.05,1.05,0,0,0,.13-1.4m-2.22-9.39c0,2-1.1,2.95-3.37,2.95h-4V13.35h4.1c2.1,0,3.26,1.06,3.26,3"/><path d="M67.92,11.4a11,11,0,0,0-4.7,1.07,1.12,1.12,0,0,0-.61,1,.91.91,0,0,0,1,.94,1.39,1.39,0,0,0,.55-.12,9.84,9.84,0,0,1,3.8-.86c2.77,0,4,1.14,4,3.81v.91a15.85,15.85,0,0,0-4.38-.65c-3.69,0-6.07,2-6.07,5,0,3.19,2.21,5.1,5.92,5.1a11.15,11.15,0,0,0,6.1-1.68,1,1,0,0,0,.45-.92v-8c0-3.74-2-5.55-6-5.55m-.3,14.21c-2.77,0-4.17-1-4.17-3.09S65,19.4,67.61,19.4a15.15,15.15,0,0,1,4.27.72v4.25a8.27,8.27,0,0,1-4.27,1.23"/><path d="M109.88,17.64a6.76,6.76,0,0,0-6.77-6.38,6.67,6.67,0,0,0-6.7,6.37,21,21,0,0,0,0,3.43,6.65,6.65,0,0,0,6.7,6.38,6.75,6.75,0,0,0,6.77-6.37,21.36,21.36,0,0,0,0-3.43m-6.77,7.85A4.71,4.71,0,0,1,98.43,21a19.52,19.52,0,0,1,0-3.25,4.71,4.71,0,0,1,9.41,0,15.7,15.7,0,0,1,0,3.24,4.7,4.7,0,0,1-4.73,4.53"/><path d="M111.48,20.36a1,1,0,0,0,1,1h4a1,1,0,0,0,1-1,1,1,0,0,0-1-1h-4a1,1,0,0,0-1,1"/><path d="M169.06,11.4a11.08,11.08,0,0,0-4.71,1.07,1.12,1.12,0,0,0-.61,1,1,1,0,0,0,.26.66,1,1,0,0,0,.7.27,1.4,1.4,0,0,0,.55-.12,9.84,9.84,0,0,1,3.8-.86c2.77,0,4,1.14,4,3.81v.91a15.89,15.89,0,0,0-4.38-.65c-3.69,0-6.07,2-6.07,5,0,3.19,2.21,5.1,5.92,5.1a11.14,11.14,0,0,0,6.1-1.68A1,1,0,0,0,175,25v-8c0-3.74-2-5.55-6-5.55m-.3,14.21c-2.77,0-4.17-1-4.17-3.09s1.56-3.11,4.17-3.11a15.2,15.2,0,0,1,4.27.72v4.25a8.29,8.29,0,0,1-4.27,1.23"/><path d="M198.22,11.4a11,11,0,0,0-4.7,1.07,1.12,1.12,0,0,0-.62,1,1,1,0,0,0,.26.66,1,1,0,0,0,.7.27,1.41,1.41,0,0,0,.56-.12,9.84,9.84,0,0,1,3.8-.86c2.77,0,4,1.14,4,3.81v.91a15.85,15.85,0,0,0-4.38-.65c-3.69,0-6.07,2-6.07,5,0,3.19,2.22,5.1,5.92,5.1a11.17,11.17,0,0,0,6.11-1.68,1,1,0,0,0,.45-.92v-8c0-3.74-2-5.55-6-5.55m-.3,14.21c-2.77,0-4.18-1-4.18-3.09s1.56-3.11,4.18-3.11a15.14,15.14,0,0,1,4.26.72v4.25a8.26,8.26,0,0,1-4.26,1.23"/><path d="M139.16,11.4a11,11,0,0,0-4.7,1.07,1.12,1.12,0,0,0-.61,1,.91.91,0,0,0,1,.94,1.39,1.39,0,0,0,.55-.12,9.84,9.84,0,0,1,3.8-.86c2.77,0,4,1.14,4,3.81v.91a15.84,15.84,0,0,0-4.38-.65c-3.69,0-6.07,2-6.07,5,0,3.19,2.21,5.1,5.92,5.1a11.15,11.15,0,0,0,6.1-1.68,1,1,0,0,0,.45-.92v-8c0-3.74-2-5.55-6-5.55m-.3,14.21c-2.77,0-4.17-1-4.17-3.09s1.56-3.11,4.17-3.11a15.11,15.11,0,0,1,4.26.72v4.25a8.26,8.26,0,0,1-4.26,1.23"/><path d="M130.54,22.24a1,1,0,0,0-.93.63,4.32,4.32,0,0,1-4,2.65c-2.47,0-4.28-1.83-4.51-4.55a26.59,26.59,0,0,1,0-3.23c.23-2.72,2-4.55,4.51-4.55a4.33,4.33,0,0,1,4,2.63,1,1,0,0,0,1.88-.3,1.71,1.71,0,0,0-.07-.46,6.26,6.26,0,0,0-5.83-3.8,6.51,6.51,0,0,0-6.52,6.38,22.13,22.13,0,0,0,0,3.43,6.48,6.48,0,0,0,6.52,6.38,6.28,6.28,0,0,0,5.84-3.83,1.59,1.59,0,0,0,.07-.43,1,1,0,0,0-1-1"/><path d="M154.45,11.46a10.85,10.85,0,0,0-6.15,1.66,1.05,1.05,0,0,0-.48,1V26.5a1,1,0,0,0,1,1,1,1,0,0,0,1-1v-12a9.6,9.6,0,0,1,4.56-1.12c2.76,0,4.4,1.62,4.4,4.32V26.5a1,1,0,0,0,1,1,1,1,0,0,0,1-1V17.66c0-4-2.25-6.21-6.36-6.21"/><path d="M190.42,18.16c-.25-4.3-2.89-6.77-7.24-6.77h-3.82A1.52,1.52,0,0,0,177.72,13V25.8a1.55,1.55,0,0,0,1.64,1.6h3.82c4.28,0,7-2.53,7.24-6.77a23.12,23.12,0,0,0,0-2.48m-2,2.42c-.2,3.21-2,4.91-5.24,4.91h-3.45V13.31h3.45c3.25,0,5.07,1.7,5.24,4.92a23.25,23.25,0,0,1,0,2.35"/></svg>