<svg width="1363" height="413" viewBox="0 0 1363 413" fill="none" xmlns="http://www.w3.org/2000/svg">
<path opacity="0.5" fill-rule="evenodd" clip-rule="evenodd" d="M176.19 347L178.071 341.9L183.119 340L178.071 338.1L176.19 333L174.31 338.1L169.261 340L174.31 341.9L176.19 347Z" fill="#7D728E"/>
<path opacity="0.5" fill-rule="evenodd" clip-rule="evenodd" d="M1312.42 230.8L1314.5 225L1320.24 222.9L1314.5 220.8L1312.42 215L1310.34 220.8L1304.6 222.9L1310.34 225L1312.42 230.8Z" fill="#CDDCE6"/>
<path opacity="0.5" fill-rule="evenodd" clip-rule="evenodd" d="M12.274 59.8L15.5404 50.7L24.5478 47.4L15.5404 44.1L12.274 35L9.00752 44.1L0 47.4L9.00752 50.7L12.274 59.8Z" fill="#CDDCE6"/>
<path opacity="0.5" fill-rule="evenodd" clip-rule="evenodd" d="M555.296 407L557.177 401.9L562.225 400L557.177 398.1L555.296 393L553.416 398.1L548.367 400L553.416 401.9L555.296 407Z" fill="#7D728E"/>
<path opacity="0.5" fill-rule="evenodd" clip-rule="evenodd" d="M615.676 171L617.557 165.9L622.605 164L617.557 162.1L615.676 157L613.795 162.1L608.747 164L613.795 165.9L615.676 171Z" fill="#7D728E"/>
<path opacity="0.5" fill-rule="evenodd" clip-rule="evenodd" d="M430.478 142.8L432.557 137L438.298 134.9L432.557 132.8L430.478 127L428.4 132.8L422.659 134.9L428.4 137L430.478 142.8Z" fill="#CDDCE6"/>
<path opacity="0.5" fill-rule="evenodd" clip-rule="evenodd" d="M816.612 413L818.493 407.9L823.541 406L818.493 404.1L816.612 399L814.731 404.1L809.683 406L814.731 407.9L816.612 413Z" fill="#7D728E"/>
<path opacity="0.5" fill-rule="evenodd" clip-rule="evenodd" d="M1355.58 340L1357.56 334.5L1363 332.5L1357.56 330.5L1355.58 325L1353.6 330.5L1348.15 332.5L1353.6 334.5L1355.58 340Z" fill="#F99D78"/>
<path opacity="0.5" fill-rule="evenodd" clip-rule="evenodd" d="M663.089 15.8L665.168 10L670.909 7.9L665.168 5.8L663.089 0L661.011 5.8L655.27 7.9L661.011 10L663.089 15.8Z" fill="#CDDCE6"/>
</svg>
